<mxfile host="65bd71144e">
    <diagram id="BEx1KlyscQ8PHA5aSKQq" name="Page-1">
        <mxGraphModel dx="1661" dy="1067" grid="1" gridSize="10" guides="1" tooltips="1" connect="1" arrows="1" fold="1" page="1" pageScale="1" pageWidth="2336" pageHeight="1654" math="0" shadow="0">
            <root>
                <mxCell id="0"/>
                <mxCell id="1" parent="0"/>
                <mxCell id="67" style="edgeStyle=none;html=1;exitX=1;exitY=0.5;exitDx=0;exitDy=0;fontSize=15;fontColor=#e5dcdc;" edge="1" parent="1" source="2">
                    <mxGeometry relative="1" as="geometry">
                        <mxPoint x="510" y="454" as="targetPoint"/>
                    </mxGeometry>
                </mxCell>
                <mxCell id="102" style="edgeStyle=none;html=1;exitX=0.5;exitY=1;exitDx=0;exitDy=0;entryX=0.503;entryY=0.012;entryDx=0;entryDy=0;entryPerimeter=0;fontSize=12;fontColor=#FFFFFF;" edge="1" parent="1" source="2" target="101">
                    <mxGeometry relative="1" as="geometry"/>
                </mxCell>
                <mxCell id="2" value="" style="aspect=fixed;perimeter=ellipsePerimeter;html=1;align=center;shadow=0;dashed=0;spacingTop=3;image;image=img/lib/active_directory/internet_cloud.svg;" vertex="1" parent="1">
                    <mxGeometry x="150" y="398" width="176.98" height="111.5" as="geometry"/>
                </mxCell>
                <mxCell id="3" value="&lt;font size=&quot;1&quot; color=&quot;#000000&quot;&gt;&lt;b style=&quot;font-size: 20px;&quot;&gt;Internet&amp;nbsp;&lt;/b&gt;&lt;/font&gt;" style="text;html=1;align=center;verticalAlign=middle;resizable=0;points=[];autosize=1;strokeColor=none;fillColor=none;" vertex="1" parent="1">
                    <mxGeometry x="188.49" y="433.75" width="100" height="40" as="geometry"/>
                </mxCell>
                <mxCell id="4" value="" style="outlineConnect=0;dashed=0;verticalLabelPosition=bottom;verticalAlign=top;align=center;html=1;shape=mxgraph.aws3.vpn_gateway;fillColor=#F58534;gradientColor=none;fontSize=20;fontColor=#000000;" vertex="1" parent="1">
                    <mxGeometry x="510" y="415.5" width="69" height="72" as="geometry"/>
                </mxCell>
                <mxCell id="5" value="" style="whiteSpace=wrap;html=1;fontSize=20;fontColor=#000000;fillColor=#B3B3B3;" vertex="1" parent="1">
                    <mxGeometry x="682.5" y="160" width="740" height="660" as="geometry"/>
                </mxCell>
                <mxCell id="6" value="" style="whiteSpace=wrap;html=1;fontSize=20;fontColor=#ffffff;fillColor=#1ba1e2;strokeColor=#006EAF;" vertex="1" parent="1">
                    <mxGeometry x="720" y="248" width="160" height="360" as="geometry"/>
                </mxCell>
                <mxCell id="7" value="" style="whiteSpace=wrap;html=1;fontSize=20;fontColor=#ffffff;fillColor=#1ba1e2;strokeColor=#006EAF;" vertex="1" parent="1">
                    <mxGeometry x="990" y="251.5" width="160" height="360" as="geometry"/>
                </mxCell>
                <mxCell id="8" value="" style="whiteSpace=wrap;html=1;fontSize=20;fontColor=#ffffff;fillColor=#1ba1e2;strokeColor=#006EAF;" vertex="1" parent="1">
                    <mxGeometry x="1250" y="248" width="160" height="360" as="geometry"/>
                </mxCell>
                <mxCell id="9" value="" style="whiteSpace=wrap;html=1;fontSize=20;fontColor=#ffffff;fillColor=#1ba1e2;strokeColor=#006EAF;" vertex="1" parent="1">
                    <mxGeometry x="720" y="660" width="250" height="110" as="geometry"/>
                </mxCell>
                <mxCell id="10" value="" style="whiteSpace=wrap;html=1;fontSize=20;fontColor=#ffffff;fillColor=#1ba1e2;strokeColor=#006EAF;" vertex="1" parent="1">
                    <mxGeometry x="1030" y="660" width="250" height="110" as="geometry"/>
                </mxCell>
                <mxCell id="12" value="" style="whiteSpace=wrap;html=1;fontSize=20;fontColor=#ffffff;fillColor=#6d8764;strokeColor=#3A5431;" vertex="1" parent="1">
                    <mxGeometry x="740" y="338" width="120" height="60" as="geometry"/>
                </mxCell>
                <mxCell id="13" value="" style="whiteSpace=wrap;html=1;fontSize=20;fontColor=#ffffff;fillColor=#6d8764;strokeColor=#3A5431;" vertex="1" parent="1">
                    <mxGeometry x="740" y="436.5" width="120" height="60" as="geometry"/>
                </mxCell>
                <mxCell id="14" value="" style="whiteSpace=wrap;html=1;fontSize=20;fontColor=#ffffff;fillColor=#6d8764;strokeColor=#3A5431;" vertex="1" parent="1">
                    <mxGeometry x="740" y="535.75" width="120" height="60" as="geometry"/>
                </mxCell>
                <mxCell id="19" value="" style="whiteSpace=wrap;html=1;fontSize=20;fontColor=#ffffff;fillColor=#6d8764;strokeColor=#3A5431;" vertex="1" parent="1">
                    <mxGeometry x="1010" y="340" width="120" height="60" as="geometry"/>
                </mxCell>
                <mxCell id="20" value="" style="whiteSpace=wrap;html=1;fontSize=20;fontColor=#ffffff;fillColor=#6d8764;strokeColor=#3A5431;" vertex="1" parent="1">
                    <mxGeometry x="1010" y="440" width="120" height="60" as="geometry"/>
                </mxCell>
                <mxCell id="21" value="" style="whiteSpace=wrap;html=1;fontSize=20;fontColor=#ffffff;fillColor=#6d8764;strokeColor=#3A5431;" vertex="1" parent="1">
                    <mxGeometry x="1010" y="535.75" width="120" height="60" as="geometry"/>
                </mxCell>
                <mxCell id="22" value="" style="whiteSpace=wrap;html=1;fontSize=20;fontColor=#ffffff;fillColor=#6d8764;strokeColor=#3A5431;" vertex="1" parent="1">
                    <mxGeometry x="1268" y="336.5" width="120" height="60" as="geometry"/>
                </mxCell>
                <mxCell id="23" value="" style="whiteSpace=wrap;html=1;fontSize=20;fontColor=#ffffff;fillColor=#6d8764;strokeColor=#3A5431;" vertex="1" parent="1">
                    <mxGeometry x="1268" y="436.5" width="120" height="60" as="geometry"/>
                </mxCell>
                <mxCell id="24" value="" style="whiteSpace=wrap;html=1;fontSize=20;fontColor=#ffffff;fillColor=#6d8764;strokeColor=#3A5431;" vertex="1" parent="1">
                    <mxGeometry x="1270" y="532.25" width="120" height="60" as="geometry"/>
                </mxCell>
                <mxCell id="25" value="" style="whiteSpace=wrap;html=1;fontSize=20;fontColor=#ffffff;fillColor=#6d8764;strokeColor=#3A5431;" vertex="1" parent="1">
                    <mxGeometry x="1040" y="680" width="120" height="60" as="geometry"/>
                </mxCell>
                <mxCell id="28" value="" style="html=1;verticalLabelPosition=bottom;align=center;labelBackgroundColor=#ffffff;verticalAlign=top;strokeWidth=2;strokeColor=#0080F0;shadow=0;dashed=0;shape=mxgraph.ios7.icons.locked;fontSize=20;fontColor=#000000;fillColor=#000000;" vertex="1" parent="1">
                    <mxGeometry x="733" y="251.5" width="34" height="53.5" as="geometry"/>
                </mxCell>
                <mxCell id="29" value="&lt;font style=&quot;font-size: 15px;&quot; color=&quot;#e5dcdc&quot;&gt;NSG&lt;/font&gt;" style="text;html=1;align=center;verticalAlign=middle;resizable=0;points=[];autosize=1;strokeColor=none;fillColor=none;fontSize=20;fontColor=#000000;" vertex="1" parent="1">
                    <mxGeometry x="720" y="271.5" width="60" height="40" as="geometry"/>
                </mxCell>
                <mxCell id="30" value="" style="html=1;verticalLabelPosition=bottom;align=center;labelBackgroundColor=#ffffff;verticalAlign=top;strokeWidth=2;strokeColor=#0080F0;shadow=0;dashed=0;shape=mxgraph.ios7.icons.locked;fontSize=20;fontColor=#000000;fillColor=#000000;" vertex="1" parent="1">
                    <mxGeometry x="1003" y="251.5" width="34" height="53.5" as="geometry"/>
                </mxCell>
                <mxCell id="31" value="&lt;font style=&quot;font-size: 15px;&quot; color=&quot;#e5dcdc&quot;&gt;NSG&lt;/font&gt;" style="text;html=1;align=center;verticalAlign=middle;resizable=0;points=[];autosize=1;strokeColor=none;fillColor=none;fontSize=20;fontColor=#000000;" vertex="1" parent="1">
                    <mxGeometry x="990" y="271.5" width="60" height="40" as="geometry"/>
                </mxCell>
                <mxCell id="32" value="" style="html=1;verticalLabelPosition=bottom;align=center;labelBackgroundColor=#ffffff;verticalAlign=top;strokeWidth=2;strokeColor=#0080F0;shadow=0;dashed=0;shape=mxgraph.ios7.icons.locked;fontSize=20;fontColor=#000000;fillColor=#000000;" vertex="1" parent="1">
                    <mxGeometry x="1263" y="258" width="34" height="53.5" as="geometry"/>
                </mxCell>
                <mxCell id="33" value="&lt;font style=&quot;font-size: 15px;&quot; color=&quot;#e5dcdc&quot;&gt;NSG&lt;/font&gt;" style="text;html=1;align=center;verticalAlign=middle;resizable=0;points=[];autosize=1;strokeColor=none;fillColor=none;fontSize=20;fontColor=#000000;" vertex="1" parent="1">
                    <mxGeometry x="1250" y="278" width="60" height="40" as="geometry"/>
                </mxCell>
                <mxCell id="34" value="" style="whiteSpace=wrap;html=1;fontSize=20;fontColor=#ffffff;fillColor=#6d8764;strokeColor=#3A5431;" vertex="1" parent="1">
                    <mxGeometry x="833" y="680" width="120" height="60" as="geometry"/>
                </mxCell>
                <mxCell id="37" value="" style="html=1;verticalLabelPosition=bottom;align=center;labelBackgroundColor=#ffffff;verticalAlign=top;strokeWidth=2;strokeColor=#0080F0;shadow=0;dashed=0;shape=mxgraph.ios7.icons.locked;fontSize=20;fontColor=#000000;fillColor=#000000;" vertex="1" parent="1">
                    <mxGeometry x="723.02" y="666.75" width="34" height="53.5" as="geometry"/>
                </mxCell>
                <mxCell id="36" value="&lt;font style=&quot;font-size: 15px;&quot; color=&quot;#e5dcdc&quot;&gt;NSG&lt;/font&gt;" style="text;html=1;align=center;verticalAlign=middle;resizable=0;points=[];autosize=1;strokeColor=none;fillColor=none;fontSize=20;fontColor=#000000;" vertex="1" parent="1">
                    <mxGeometry x="710" y="690.25" width="60" height="40" as="geometry"/>
                </mxCell>
                <mxCell id="40" value="" style="html=1;verticalLabelPosition=bottom;align=center;labelBackgroundColor=#ffffff;verticalAlign=top;strokeWidth=2;strokeColor=#0080F0;shadow=0;dashed=0;shape=mxgraph.ios7.icons.locked;fontSize=20;fontColor=#000000;fillColor=#000000;" vertex="1" parent="1">
                    <mxGeometry x="1243.02" y="671.75" width="34" height="53.5" as="geometry"/>
                </mxCell>
                <mxCell id="41" value="&lt;font style=&quot;font-size: 15px;&quot; color=&quot;#e5dcdc&quot;&gt;NSG&lt;/font&gt;" style="text;html=1;align=center;verticalAlign=middle;resizable=0;points=[];autosize=1;strokeColor=none;fillColor=none;fontSize=20;fontColor=#000000;" vertex="1" parent="1">
                    <mxGeometry x="1230" y="695.25" width="60" height="40" as="geometry"/>
                </mxCell>
                <mxCell id="42" value="AD DS Server&amp;nbsp;" style="text;html=1;align=center;verticalAlign=middle;resizable=0;points=[];autosize=1;strokeColor=none;fillColor=none;fontSize=15;fontColor=#e5dcdc;" vertex="1" parent="1">
                    <mxGeometry x="1040" y="710" width="120" height="30" as="geometry"/>
                </mxCell>
                <mxCell id="43" value="VM" style="text;html=1;align=center;verticalAlign=middle;resizable=0;points=[];autosize=1;strokeColor=none;fillColor=none;fontSize=15;fontColor=#e5dcdc;" vertex="1" parent="1">
                    <mxGeometry x="810" y="370" width="50" height="30" as="geometry"/>
                </mxCell>
                <mxCell id="44" value="VM" style="text;html=1;align=center;verticalAlign=middle;resizable=0;points=[];autosize=1;strokeColor=none;fillColor=none;fontSize=15;fontColor=#e5dcdc;" vertex="1" parent="1">
                    <mxGeometry x="800" y="451.5" width="50" height="30" as="geometry"/>
                </mxCell>
                <mxCell id="45" value="VM" style="text;html=1;align=center;verticalAlign=middle;resizable=0;points=[];autosize=1;strokeColor=none;fillColor=none;fontSize=15;fontColor=#e5dcdc;" vertex="1" parent="1">
                    <mxGeometry x="810" y="550.75" width="50" height="30" as="geometry"/>
                </mxCell>
                <mxCell id="48" value="" style="sketch=0;aspect=fixed;html=1;points=[];align=center;image;fontSize=12;image=img/lib/mscae/VirtualMachineWindows.svg;fontColor=#e5dcdc;fillColor=#000000;" vertex="1" parent="1">
                    <mxGeometry x="769.5699999999999" y="354" width="30.43" height="28" as="geometry"/>
                </mxCell>
                <mxCell id="49" value="" style="sketch=0;aspect=fixed;html=1;points=[];align=center;image;fontSize=12;image=img/lib/mscae/VirtualMachineWindows.svg;fontColor=#e5dcdc;fillColor=#000000;" vertex="1" parent="1">
                    <mxGeometry x="766.9999999999999" y="451.5" width="30.43" height="28" as="geometry"/>
                </mxCell>
                <mxCell id="50" value="" style="sketch=0;aspect=fixed;html=1;points=[];align=center;image;fontSize=12;image=img/lib/mscae/VirtualMachineWindows.svg;fontColor=#e5dcdc;fillColor=#000000;" vertex="1" parent="1">
                    <mxGeometry x="769.5699999999999" y="551.75" width="30.43" height="28" as="geometry"/>
                </mxCell>
                <mxCell id="51" value="" style="sketch=0;aspect=fixed;html=1;points=[];align=center;image;fontSize=12;image=img/lib/mscae/VirtualMachineWindows.svg;fontColor=#e5dcdc;fillColor=#000000;" vertex="1" parent="1">
                    <mxGeometry x="1034.79" y="350" width="30.43" height="28" as="geometry"/>
                </mxCell>
                <mxCell id="52" value="" style="sketch=0;aspect=fixed;html=1;points=[];align=center;image;fontSize=12;image=img/lib/mscae/VirtualMachineWindows.svg;fontColor=#e5dcdc;fillColor=#000000;" vertex="1" parent="1">
                    <mxGeometry x="1034.78" y="456" width="30.43" height="28" as="geometry"/>
                </mxCell>
                <mxCell id="53" value="" style="sketch=0;aspect=fixed;html=1;points=[];align=center;image;fontSize=12;image=img/lib/mscae/VirtualMachineWindows.svg;fontColor=#e5dcdc;fillColor=#000000;" vertex="1" parent="1">
                    <mxGeometry x="1034.78" y="552.75" width="30.43" height="28" as="geometry"/>
                </mxCell>
                <mxCell id="54" value="VM" style="text;html=1;align=center;verticalAlign=middle;resizable=0;points=[];autosize=1;strokeColor=none;fillColor=none;fontSize=15;fontColor=#e5dcdc;" vertex="1" parent="1">
                    <mxGeometry x="1070" y="348" width="50" height="30" as="geometry"/>
                </mxCell>
                <mxCell id="55" value="VM" style="text;html=1;align=center;verticalAlign=middle;resizable=0;points=[];autosize=1;strokeColor=none;fillColor=none;fontSize=15;fontColor=#e5dcdc;" vertex="1" parent="1">
                    <mxGeometry x="1070" y="456" width="50" height="30" as="geometry"/>
                </mxCell>
                <mxCell id="56" value="VM" style="text;html=1;align=center;verticalAlign=middle;resizable=0;points=[];autosize=1;strokeColor=none;fillColor=none;fontSize=15;fontColor=#e5dcdc;" vertex="1" parent="1">
                    <mxGeometry x="1070" y="552.75" width="50" height="30" as="geometry"/>
                </mxCell>
                <mxCell id="57" value="" style="aspect=fixed;html=1;points=[];align=center;image;fontSize=12;image=img/lib/azure2/databases/Azure_SQL_VM.svg;fontColor=#e5dcdc;fillColor=#000000;" vertex="1" parent="1">
                    <mxGeometry x="1310" y="344.5" width="44.8" height="42" as="geometry"/>
                </mxCell>
                <mxCell id="58" value="" style="aspect=fixed;html=1;points=[];align=center;image;fontSize=12;image=img/lib/azure2/databases/Azure_SQL_VM.svg;fontColor=#e5dcdc;fillColor=#000000;" vertex="1" parent="1">
                    <mxGeometry x="1315.2" y="442" width="44.8" height="42" as="geometry"/>
                </mxCell>
                <mxCell id="59" value="" style="aspect=fixed;html=1;points=[];align=center;image;fontSize=12;image=img/lib/azure2/databases/Azure_SQL_VM.svg;fontColor=#e5dcdc;fillColor=#000000;" vertex="1" parent="1">
                    <mxGeometry x="1315.2" y="541.25" width="44.8" height="42" as="geometry"/>
                </mxCell>
                <mxCell id="60" value="Web Tier Subnet&amp;nbsp;" style="text;html=1;align=center;verticalAlign=middle;resizable=0;points=[];autosize=1;strokeColor=none;fillColor=none;fontSize=15;fontColor=#e5dcdc;" vertex="1" parent="1">
                    <mxGeometry x="740" y="221.5" width="140" height="30" as="geometry"/>
                </mxCell>
                <mxCell id="61" value="Busines Tier Subnet&amp;nbsp;" style="text;html=1;align=center;verticalAlign=middle;resizable=0;points=[];autosize=1;strokeColor=none;fillColor=none;fontSize=15;fontColor=#e5dcdc;" vertex="1" parent="1">
                    <mxGeometry x="990" y="221.5" width="160" height="30" as="geometry"/>
                </mxCell>
                <mxCell id="62" value="Data Tier Subnet&amp;nbsp;" style="text;html=1;align=center;verticalAlign=middle;resizable=0;points=[];autosize=1;strokeColor=none;fillColor=none;fontSize=15;fontColor=#e5dcdc;" vertex="1" parent="1">
                    <mxGeometry x="1260" y="218" width="140" height="30" as="geometry"/>
                </mxCell>
                <mxCell id="63" value="" style="verticalLabelPosition=bottom;html=1;verticalAlign=top;align=center;strokeColor=none;fillColor=#00BEF2;shape=mxgraph.azure.computer;pointerEvents=1;fontSize=15;fontColor=#e5dcdc;" vertex="1" parent="1">
                    <mxGeometry x="880" y="685" width="30" height="25" as="geometry"/>
                </mxCell>
                <mxCell id="64" value="Jumpbox&lt;br&gt;" style="text;html=1;align=center;verticalAlign=middle;resizable=0;points=[];autosize=1;strokeColor=none;fillColor=none;fontSize=15;fontColor=#e5dcdc;" vertex="1" parent="1">
                    <mxGeometry x="853" y="710" width="80" height="30" as="geometry"/>
                </mxCell>
                <mxCell id="65" value="" style="sketch=0;aspect=fixed;html=1;points=[];align=center;image;fontSize=12;image=img/lib/mscae/Azure_AD_Identity_Protection.svg;fontColor=#e5dcdc;fillColor=#000000;" vertex="1" parent="1">
                    <mxGeometry x="1075" y="685" width="25" height="25" as="geometry"/>
                </mxCell>
                <mxCell id="66" value="" style="sketch=0;aspect=fixed;html=1;points=[];align=center;image;fontSize=12;image=img/lib/mscae/Azure_AD_Domain_Services.svg;fontColor=#e5dcdc;fillColor=#000000;" vertex="1" parent="1">
                    <mxGeometry x="1040" y="685" width="25" height="25" as="geometry"/>
                </mxCell>
                <mxCell id="69" value="Actor" style="shape=umlActor;verticalLabelPosition=bottom;verticalAlign=top;html=1;outlineConnect=0;fontSize=15;fontColor=#e5dcdc;fillColor=#000000;" vertex="1" parent="1">
                    <mxGeometry x="258.49" y="650" width="30" height="60" as="geometry"/>
                </mxCell>
                <mxCell id="70" value="DevOp" style="text;html=1;align=center;verticalAlign=middle;resizable=0;points=[];autosize=1;strokeColor=none;fillColor=none;fontSize=15;fontColor=#e5dcdc;" vertex="1" parent="1">
                    <mxGeometry x="238" y="730.25" width="70" height="30" as="geometry"/>
                </mxCell>
                <mxCell id="71" value="" style="aspect=fixed;html=1;points=[];align=center;image;fontSize=12;image=img/lib/azure2/networking/Load_Balancers.svg;fontColor=#e5dcdc;fillColor=#000000;" vertex="1" parent="1">
                    <mxGeometry x="910" y="449.5" width="50.5" height="50.5" as="geometry"/>
                </mxCell>
                <mxCell id="73" value="" style="aspect=fixed;html=1;points=[];align=center;image;fontSize=12;image=img/lib/azure2/networking/Load_Balancers.svg;fontColor=#e5dcdc;fillColor=#000000;" vertex="1" parent="1">
                    <mxGeometry x="1179.5" y="451.5" width="50.5" height="50.5" as="geometry"/>
                </mxCell>
                <mxCell id="74" value="" style="endArrow=classic;html=1;fontSize=15;fontColor=#e5dcdc;entryX=0;entryY=0.5;entryDx=0;entryDy=0;" edge="1" parent="1" source="4" target="12">
                    <mxGeometry width="50" height="50" relative="1" as="geometry">
                        <mxPoint x="740" y="480" as="sourcePoint"/>
                        <mxPoint x="790" y="430" as="targetPoint"/>
                    </mxGeometry>
                </mxCell>
                <mxCell id="75" style="edgeStyle=none;html=1;exitX=1;exitY=0.5;exitDx=0;exitDy=0;exitPerimeter=0;entryX=0;entryY=0.25;entryDx=0;entryDy=0;fontSize=15;fontColor=#e5dcdc;" edge="1" parent="1" source="4" target="13">
                    <mxGeometry relative="1" as="geometry"/>
                </mxCell>
                <mxCell id="76" style="edgeStyle=none;html=1;exitX=0.855;exitY=0.855;exitDx=0;exitDy=0;exitPerimeter=0;entryX=0;entryY=0.5;entryDx=0;entryDy=0;fontSize=15;fontColor=#e5dcdc;" edge="1" parent="1" source="4" target="14">
                    <mxGeometry relative="1" as="geometry"/>
                </mxCell>
                <mxCell id="78" value="" style="endArrow=classic;html=1;fontSize=15;fontColor=#e5dcdc;entryX=-0.079;entryY=0.489;entryDx=0;entryDy=0;entryPerimeter=0;exitX=1.001;exitY=0.63;exitDx=0;exitDy=0;exitPerimeter=0;" edge="1" parent="1" source="6" target="71">
                    <mxGeometry width="50" height="50" relative="1" as="geometry">
                        <mxPoint x="880" y="437" as="sourcePoint"/>
                        <mxPoint x="790" y="430" as="targetPoint"/>
                    </mxGeometry>
                </mxCell>
                <mxCell id="79" value="" style="endArrow=classic;html=1;fontSize=15;fontColor=#e5dcdc;entryX=-0.003;entryY=0.541;entryDx=0;entryDy=0;entryPerimeter=0;" edge="1" parent="1" target="73">
                    <mxGeometry width="50" height="50" relative="1" as="geometry">
                        <mxPoint x="1150" y="480" as="sourcePoint"/>
                        <mxPoint x="1180" y="440" as="targetPoint"/>
                    </mxGeometry>
                </mxCell>
                <mxCell id="81" value="" style="endArrow=classic;html=1;fontSize=15;fontColor=#e5dcdc;entryX=0;entryY=0.5;entryDx=0;entryDy=0;exitX=0.565;exitY=0.027;exitDx=0;exitDy=0;exitPerimeter=0;" edge="1" parent="1" source="71">
                    <mxGeometry width="50" height="50" relative="1" as="geometry">
                        <mxPoint x="961" y="416" as="sourcePoint"/>
                        <mxPoint x="1015.75" y="367.74" as="targetPoint"/>
                    </mxGeometry>
                </mxCell>
                <mxCell id="82" value="" style="endArrow=classic;html=1;fontSize=15;fontColor=#e5dcdc;entryX=0;entryY=0.5;entryDx=0;entryDy=0;exitX=1.06;exitY=0.472;exitDx=0;exitDy=0;exitPerimeter=0;" edge="1" parent="1" source="71" target="20">
                    <mxGeometry width="50" height="50" relative="1" as="geometry">
                        <mxPoint x="971" y="426" as="sourcePoint"/>
                        <mxPoint x="1025.75" y="377.7399999999998" as="targetPoint"/>
                    </mxGeometry>
                </mxCell>
                <mxCell id="83" value="" style="endArrow=classic;html=1;fontSize=15;fontColor=#e5dcdc;entryX=0.008;entryY=0.399;entryDx=0;entryDy=0;exitX=0.713;exitY=0.918;exitDx=0;exitDy=0;exitPerimeter=0;entryPerimeter=0;" edge="1" parent="1" source="71" target="21">
                    <mxGeometry width="50" height="50" relative="1" as="geometry">
                        <mxPoint x="981" y="436" as="sourcePoint"/>
                        <mxPoint x="1035.75" y="387.7399999999998" as="targetPoint"/>
                    </mxGeometry>
                </mxCell>
                <mxCell id="84" value="" style="endArrow=classic;html=1;fontSize=15;fontColor=#e5dcdc;entryX=0;entryY=0.5;entryDx=0;entryDy=0;" edge="1" parent="1" target="22">
                    <mxGeometry width="50" height="50" relative="1" as="geometry">
                        <mxPoint x="1200" y="450" as="sourcePoint"/>
                        <mxPoint x="1025.75" y="377.7399999999998" as="targetPoint"/>
                    </mxGeometry>
                </mxCell>
                <mxCell id="88" value="" style="endArrow=classic;html=1;fontSize=15;fontColor=#e5dcdc;" edge="1" parent="1">
                    <mxGeometry width="50" height="50" relative="1" as="geometry">
                        <mxPoint x="1227.02" y="479.5" as="sourcePoint"/>
                        <mxPoint x="1270" y="480" as="targetPoint"/>
                    </mxGeometry>
                </mxCell>
                <mxCell id="89" value="" style="endArrow=classic;html=1;fontSize=15;fontColor=#e5dcdc;entryX=0;entryY=0.5;entryDx=0;entryDy=0;" edge="1" parent="1" target="24">
                    <mxGeometry width="50" height="50" relative="1" as="geometry">
                        <mxPoint x="1202" y="502" as="sourcePoint"/>
                        <mxPoint x="1270" y="418.5" as="targetPoint"/>
                    </mxGeometry>
                </mxCell>
                <mxCell id="90" style="edgeStyle=none;html=1;exitX=1;exitY=0.5;exitDx=0;exitDy=0;fontSize=15;fontColor=#e5dcdc;entryX=0.063;entryY=0.242;entryDx=0;entryDy=0;entryPerimeter=0;" edge="1" parent="1" target="37">
                    <mxGeometry relative="1" as="geometry">
                        <mxPoint x="483.02" y="680.25" as="targetPoint"/>
                        <mxPoint x="299.9999999999998" y="680" as="sourcePoint"/>
                    </mxGeometry>
                </mxCell>
                <mxCell id="93" value="Vnet" style="text;html=1;align=center;verticalAlign=middle;resizable=0;points=[];autosize=1;strokeColor=none;fillColor=none;fontSize=15;fontColor=#2a2323;" vertex="1" parent="1">
                    <mxGeometry x="707.02" y="180" width="50" height="30" as="geometry"/>
                </mxCell>
                <mxCell id="94" value="&lt;font style=&quot;font-size: 6px;&quot;&gt;ref :https://www.scholarhat.com/tutorial/azure/what-is-microsoft-azure-virtual-network-and-architecture&lt;/font&gt;" style="text;html=1;align=center;verticalAlign=middle;resizable=0;points=[];autosize=1;strokeColor=none;fillColor=none;fontSize=15;fontColor=#FFFFFF;" vertex="1" parent="1">
                    <mxGeometry x="1130" y="790" width="290" height="30" as="geometry"/>
                </mxCell>
                <mxCell id="95" value="Text" style="text;html=1;align=center;verticalAlign=middle;resizable=0;points=[];autosize=1;strokeColor=none;fillColor=none;fontSize=6;fontColor=#FFFFFF;" vertex="1" parent="1">
                    <mxGeometry x="1485" y="224" width="30" height="20" as="geometry"/>
                </mxCell>
                <mxCell id="97" value="&lt;font style=&quot;font-size: 20px;&quot;&gt;Application Gateway&lt;/font&gt;" style="text;html=1;align=center;verticalAlign=middle;resizable=0;points=[];autosize=1;strokeColor=none;fillColor=none;fontSize=6;fontColor=#FFFFFF;" vertex="1" parent="1">
                    <mxGeometry x="400" y="370" width="210" height="40" as="geometry"/>
                </mxCell>
                <mxCell id="98" value="Azure Load balance&amp;nbsp;" style="text;html=1;align=center;verticalAlign=middle;resizable=0;points=[];autosize=1;strokeColor=none;fillColor=none;fontSize=12;fontColor=#FFFFFF;" vertex="1" parent="1">
                    <mxGeometry x="853" y="505.75" width="130" height="30" as="geometry"/>
                </mxCell>
                <mxCell id="100" value="Azure Load balance&amp;nbsp;" style="text;html=1;align=center;verticalAlign=middle;resizable=0;points=[];autosize=1;strokeColor=none;fillColor=none;fontSize=12;fontColor=#FFFFFF;" vertex="1" parent="1">
                    <mxGeometry x="1133" y="502.25" width="130" height="30" as="geometry"/>
                </mxCell>
                <mxCell id="101" value="" style="aspect=fixed;html=1;points=[];align=center;image;fontSize=12;image=img/lib/azure2/networking/DNS_Zones.svg;fontColor=#FFFFFF;fillColor=#000000;" vertex="1" parent="1">
                    <mxGeometry x="207" y="570" width="64" height="64" as="geometry"/>
                </mxCell>
                <mxCell id="103" value="Azure DNS&lt;br&gt;" style="text;html=1;align=center;verticalAlign=middle;resizable=0;points=[];autosize=1;strokeColor=none;fillColor=none;fontSize=12;fontColor=#FFFFFF;" vertex="1" parent="1">
                    <mxGeometry x="246.98" y="532.25" width="80" height="30" as="geometry"/>
                </mxCell>
                <mxCell id="104" value="Active Directory Subnet" style="text;html=1;align=center;verticalAlign=middle;resizable=0;points=[];autosize=1;strokeColor=none;fillColor=none;fontSize=12;fontColor=#FFFFFF;" vertex="1" parent="1">
                    <mxGeometry x="1020" y="634" width="150" height="30" as="geometry"/>
                </mxCell>
            </root>
        </mxGraphModel>
    </diagram>
</mxfile>